<svg width="24" height="24" viewBox="0 0 24 24" fill="none" xmlns="http://www.w3.org/2000/svg">
<path fill-rule="evenodd" clip-rule="evenodd" d="M9.50001 4C7.56702 4 6.00001 5.567 6.00001 7.5C6.00001 9.433 7.56702 11 9.50001 11C11.433 11 13 9.433 13 7.5C13 5.567 11.433 4 9.50001 4ZM4.00001 7.5C4.00001 4.46243 6.46245 2 9.50001 2C12.5376 2 15 4.46243 15 7.5C15 10.5376 12.5376 13 9.50001 13C6.46245 13 4.00001 10.5376 4.00001 7.5ZM15.1045 3.02273C15.3503 2.52815 15.9505 2.32646 16.445 2.57225C18.2536 3.47103 19.5 5.33904 19.5 7.5C19.5 9.66096 18.2536 11.529 16.445 12.4278C15.9505 12.6735 15.3503 12.4719 15.1045 11.9773C14.8587 11.4827 15.0604 10.8825 15.555 10.6367C16.7099 10.0628 17.5 8.87276 17.5 7.5C17.5 6.12724 16.7099 4.9372 15.555 4.36327C15.0604 4.11749 14.8587 3.51731 15.1045 3.02273ZM9.50001 17C6.96125 17 4.58754 18.3253 2.78634 20.6178C2.44513 21.0521 1.81648 21.1275 1.3822 20.7863C0.947925 20.4451 0.872478 19.8165 1.21369 19.3822C3.30547 16.7198 6.21714 15 9.50001 15C12.7829 15 15.6946 16.7198 17.7863 19.3822C18.1275 19.8165 18.0521 20.4451 17.6178 20.7863C17.1835 21.1275 16.5549 21.0521 16.2137 20.6178C14.4125 18.3253 12.0388 17 9.50001 17ZM17.0889 16.3541C17.3166 15.851 17.9091 15.6276 18.4123 15.8553C20.0902 16.6146 21.5741 17.8393 22.7863 19.3822C23.1275 19.8165 23.0521 20.4451 22.6178 20.7863C22.1835 21.1275 21.5549 21.0521 21.2137 20.6178C20.171 19.2907 18.9327 18.2861 17.5877 17.6775C17.0846 17.4498 16.8613 16.8573 17.0889 16.3541Z" fill="black"/>
</svg>
