<svg width="24" height="24" viewBox="0 0 24 24" fill="none" xmlns="http://www.w3.org/2000/svg">
<path fill-rule="evenodd" clip-rule="evenodd" d="M7.75871 2H16.2413C17.0463 1.99999 17.7106 1.99998 18.2518 2.04419C18.8139 2.09012 19.3306 2.18868 19.816 2.43597C20.5686 2.81947 21.1805 3.43139 21.564 4.18404C21.8113 4.66937 21.9099 5.18608 21.9558 5.74817C22 6.28936 22 6.95372 22 7.75868V13.2413C22 14.0463 22 14.7106 21.9558 15.2518C21.9099 15.8139 21.8113 16.3306 21.564 16.816C21.1805 17.5686 20.5686 18.1805 19.816 18.564C19.3306 18.8113 18.8139 18.9099 18.2518 18.9558C17.7106 19 17.0463 19 16.2413 19H13.6838C13.0196 19 12.8262 19.0047 12.6503 19.0408C12.4737 19.0771 12.3029 19.137 12.1424 19.219C11.9825 19.3007 11.8285 19.4178 11.3099 19.8327L8.89679 21.7632C8.71311 21.9102 8.52588 22.06 8.36128 22.1689C8.20385 22.273 7.89861 22.4593 7.50162 22.4597C7.04481 22.4602 6.61267 22.2525 6.32769 21.8955C6.08003 21.5852 6.03483 21.2305 6.01776 21.0425C5.99991 20.846 5.99995 20.6062 6 20.371L6 18.9918C5.60819 18.9789 5.2722 18.9461 4.96473 18.8637C3.58436 18.4938 2.50617 17.4156 2.1363 16.0353C1.99921 15.5236 1.99952 14.933 1.99996 14.1376C1.99998 14.0924 2 14.0465 2 14L2 7.7587C1.99999 6.95373 1.99998 6.28937 2.0442 5.74817C2.09012 5.18608 2.18869 4.66937 2.43598 4.18404C2.81947 3.43139 3.43139 2.81947 4.18404 2.43597C4.66938 2.18868 5.18608 2.09012 5.74818 2.04419C6.28937 1.99998 6.95374 1.99999 7.75871 2ZM5.91104 4.03755C5.47263 4.07337 5.24842 4.1383 5.09202 4.21799C4.7157 4.40973 4.40974 4.7157 4.21799 5.09202C4.1383 5.24842 4.07338 5.47262 4.03756 5.91104C4.00078 6.36113 4.00001 6.94342 4.00001 7.8V14C4.00001 14.9944 4.00859 15.2954 4.06815 15.5176C4.25309 16.2078 4.79218 16.7469 5.48237 16.9319C5.70464 16.9914 6.00565 17 7 17C7.55229 17 8 17.4477 8 18V19.9194L10.0605 18.271C10.0833 18.2528 10.1057 18.2348 10.1278 18.2171C10.5499 17.8791 10.869 17.6237 11.2325 17.4379C11.5535 17.274 11.8951 17.1541 12.2482 17.0817C12.6481 16.9996 13.0568 16.9998 13.5975 17C13.6259 17 13.6546 17 13.6838 17H16.2C17.0566 17 17.6389 16.9992 18.089 16.9624C18.5274 16.9266 18.7516 16.8617 18.908 16.782C19.2843 16.5903 19.5903 16.2843 19.782 15.908C19.8617 15.7516 19.9266 15.5274 19.9625 15.089C19.9992 14.6389 20 14.0566 20 13.2V7.8C20 6.94342 19.9992 6.36113 19.9625 5.91104C19.9266 5.47262 19.8617 5.24842 19.782 5.09202C19.5903 4.7157 19.2843 4.40973 18.908 4.21799C18.7516 4.1383 18.5274 4.07337 18.089 4.03755C17.6389 4.00078 17.0566 4 16.2 4H7.8C6.94343 4 6.36113 4.00078 5.91104 4.03755Z" fill="black"/>
</svg>
