<svg width="24" height="24" viewBox="0 0 24 24" fill="none" xmlns="http://www.w3.org/2000/svg">
<path fill-rule="evenodd" clip-rule="evenodd" d="M19.334 6.07975L11.668 13.7457L14.0011 19.7451L19.334 6.07975ZM10.2538 12.3315L17.9198 4.66554L4.25438 9.99837L10.2538 12.3315ZM20.6472 1.47411C20.8303 1.4209 21.1988 1.32529 21.5946 1.4575C22.0417 1.60688 22.3926 1.95779 22.542 2.40493C22.6742 2.8007 22.5786 3.16916 22.5254 3.35235C22.4674 3.55198 22.3745 3.7899 22.2813 4.0286L15.6639 20.9857C15.5598 21.2526 15.459 21.511 15.3604 21.7105C15.2751 21.8828 15.0855 22.2492 14.6919 22.4536C14.2578 22.6791 13.741 22.6788 13.3072 22.4528C12.9139 22.2479 12.7246 21.8813 12.6396 21.7089C12.5412 21.5093 12.4407 21.2507 12.3369 20.9838L9.72699 14.2725L3.05101 11.6763C3.03924 11.6717 3.02748 11.6672 3.01574 11.6626C2.74878 11.5588 2.49024 11.4583 2.29065 11.3599C2.11819 11.2749 1.75163 11.0856 1.54668 10.6923C1.32067 10.2585 1.32036 9.74172 1.54586 9.30766C1.75035 8.91405 2.11669 8.72436 2.28905 8.63914C2.48853 8.5405 2.74695 8.43969 3.01379 8.3356C3.02552 8.33103 3.03727 8.32644 3.04904 8.32185L19.9709 1.7182C20.2096 1.625 20.4475 1.5321 20.6472 1.47411Z" fill="black"/>
</svg>
