<svg width="24" height="24" viewBox="0 0 24 24" fill="none" xmlns="http://www.w3.org/2000/svg">
<path fill-rule="evenodd" clip-rule="evenodd" d="M6.7587 1H14.2413C15.0463 0.999988 15.7106 0.999977 16.2518 1.04419C16.8139 1.09012 17.3306 1.18868 17.816 1.43597C18.5686 1.81947 19.1805 2.43139 19.564 3.18404C19.8113 3.66937 19.9099 4.18608 19.9558 4.74817C20 5.28936 20 5.95372 20 6.75868V10.0176C20.0672 10.0212 20.1323 10.0254 20.195 10.0306C20.5904 10.0629 20.9836 10.1342 21.362 10.327C21.9265 10.6146 22.3854 11.0735 22.673 11.638C22.8658 12.0164 22.9371 12.4096 22.9694 12.805C23 13.1795 23 13.6343 23 14.1614V16.9463C23 17.3849 23 17.7634 22.9787 18.0767C22.9561 18.4065 22.9066 18.7364 22.7716 19.0623C22.4672 19.7974 21.8831 20.3814 21.1481 20.6859C20.8221 20.8209 20.4922 20.8704 20.1624 20.8929C20.1101 20.8965 20.0559 20.8995 20 20.902V22C20 22.3723 19.7932 22.7138 19.4632 22.8862C19.1333 23.0587 18.7348 23.0336 18.4292 22.8211L16.2528 21.3079C15.9175 21.0749 15.8497 21.0324 15.7856 21.0034C15.7118 20.9699 15.6341 20.9455 15.5543 20.9308C15.4851 20.9181 15.4052 20.9143 14.9969 20.9143H13.1614C12.6343 20.9143 12.1795 20.9143 11.805 20.8837C11.4096 20.8514 11.0164 20.7801 10.638 20.5873C10.0735 20.2997 9.6146 19.8407 9.32698 19.2763C9.13419 18.8979 9.06287 18.5047 9.03057 18.1093C9.01402 17.9068 9.00642 17.6808 9.00294 17.4326L7.61001 18.843C7.41846 19.037 7.23059 19.2272 7.06593 19.3669C6.91969 19.4909 6.61018 19.7413 6.17975 19.7771C5.69992 19.8169 5.23013 19.624 4.91677 19.2585C4.63564 18.9306 4.59139 18.5349 4.57449 18.3439C4.55547 18.1289 4.55551 17.8615 4.55555 17.5889L4.55556 16.0111C4.53633 15.9951 4.49176 15.9682 4.42027 15.9578C2.67166 15.7016 1.29837 14.3283 1.04223 12.5797C0.999752 12.2897 0.999851 11.9625 0.999984 11.5208C0.999992 11.4958 0.999999 11.4703 0.999999 11.4444L0.999999 6.7587C0.999986 5.95373 0.999976 5.28937 1.04419 4.74818C1.09012 4.18608 1.18868 3.66937 1.43597 3.18404C1.81947 2.43139 2.43139 1.81947 3.18404 1.43597C3.66937 1.18868 4.18608 1.09012 4.74817 1.04419C5.28937 0.999977 5.95373 0.999988 6.7587 1ZM11 14.9994C11 14.9998 11 15.0003 11 15.0007V16.7143C11 17.2908 11.0008 17.6631 11.0239 17.9465C11.0461 18.2181 11.0838 18.3188 11.109 18.3683C11.2049 18.5564 11.3578 18.7094 11.546 18.8053C11.5955 18.8305 11.6962 18.8682 11.9678 18.8904C12.2512 18.9135 12.6234 18.9143 13.2 18.9143H14.9969C15.0181 18.9143 15.0391 18.9143 15.0599 18.9143C15.3706 18.914 15.6448 18.9138 15.9168 18.964C16.1561 19.0081 16.3891 19.0811 16.6108 19.1815C16.8628 19.2956 17.0877 19.4523 17.3427 19.6298C17.3598 19.6417 17.377 19.6537 17.3944 19.6658L18 20.0868V19.9143C18 19.362 18.4477 18.9143 19 18.9143C19.4796 18.9143 19.7893 18.9137 20.0262 18.8976C20.2542 18.882 20.3411 18.8554 20.3827 18.8382C20.6277 18.7367 20.8224 18.542 20.9239 18.297C20.9411 18.2554 20.9677 18.1685 20.9833 17.9405C20.9995 17.7035 21 17.3939 21 16.9143V14.2C21 13.6234 20.9992 13.2512 20.9761 12.9678C20.9539 12.6962 20.9162 12.5955 20.891 12.546C20.7951 12.3578 20.6422 12.2049 20.454 12.109C20.4045 12.0838 20.3038 12.0461 20.0322 12.0239C19.7488 12.0008 19.3766 12 18.8 12H13.2C12.6234 12 12.2512 12.0008 11.9678 12.0239C11.6962 12.0461 11.5955 12.0838 11.546 12.109C11.3578 12.2049 11.2049 12.3578 11.109 12.546C11.0838 12.5955 11.0461 12.6962 11.0239 12.9678C11.0008 13.2512 11 13.6234 11 14.2V14.9994ZM9 14.5894L6.55555 17.0644V15.9916C6.55555 14.8142 5.59828 14.109 4.71013 13.9789C3.83583 13.8508 3.14918 13.1642 3.02112 12.2899C3.00266 12.1639 3 11.9959 3 11.4444V6.8C3 5.94342 3.00078 5.36113 3.03755 4.91104C3.07337 4.47262 3.1383 4.24842 3.21799 4.09202C3.40973 3.7157 3.71569 3.40973 4.09202 3.21799C4.24842 3.1383 4.47262 3.07337 4.91104 3.03755C5.36113 3.00078 5.94342 3 6.8 3H14.2C15.0566 3 15.6389 3.00078 16.089 3.03755C16.5274 3.07337 16.7516 3.1383 16.908 3.21799C17.2843 3.40973 17.5903 3.7157 17.782 4.09202C17.8617 4.24842 17.9266 4.47262 17.9624 4.91104C17.9992 5.36113 18 5.94342 18 6.8V10L13.1615 10C12.6343 9.99998 12.1795 9.99997 11.805 10.0306C11.4096 10.0629 11.0164 10.1342 10.638 10.327C10.0735 10.6146 9.6146 11.0735 9.32698 11.638C9.13419 12.0164 9.06287 12.4096 9.03057 12.805C8.99997 13.1795 8.99998 13.6343 9 14.1615L9 14.5894Z" fill="black"/>
</svg>
