<svg width="24" height="24" viewBox="0 0 24 24" fill="none" xmlns="http://www.w3.org/2000/svg">
<path fill-rule="evenodd" clip-rule="evenodd" d="M15.5013 3.30272C15.9838 3.10286 16.501 3 17.0232 3C17.5454 3 18.0626 3.10286 18.5451 3.30272C19.0275 3.50257 19.4659 3.7955 19.8352 4.16478C20.2045 4.53406 20.4974 4.97246 20.6973 5.45495C20.8971 5.93744 21 6.45456 21 6.9768C21 7.49904 20.8971 8.01617 20.6973 8.49866C20.4974 8.98114 20.2045 9.41954 19.8352 9.78882L18.8084 10.8156C18.8045 10.8197 18.8005 10.8238 18.7965 10.8278C18.7924 10.8318 18.7884 10.8358 18.7843 10.8397L8.92829 20.6958C8.73348 20.8906 8.46927 21 8.19378 21H4.03876C3.46507 21 3 20.5349 3 19.9612V15.8062C3 15.5307 3.10944 15.2665 3.30424 15.0717L14.2112 4.16478C14.5805 3.7955 15.0189 3.50257 15.5013 3.30272ZM18.0619 8.62414L18.3662 8.3198C18.5426 8.14343 18.6825 7.93406 18.7779 7.70363C18.8734 7.4732 18.9225 7.22622 18.9225 6.9768C18.9225 6.72738 18.8734 6.4804 18.7779 6.24997C18.6825 6.01954 18.5426 5.81017 18.3662 5.6338C18.1898 5.45744 17.9805 5.31753 17.75 5.22209C17.5196 5.12664 17.2726 5.07751 17.0232 5.07751C16.7738 5.07751 16.5268 5.12664 16.2964 5.22209C16.0659 5.31753 15.8566 5.45744 15.6802 5.6338L15.3759 5.93814L18.0619 8.62414ZM13.9068 7.40716L16.5928 10.0932L7.76351 18.9225H5.07751V16.2365L13.9068 7.40716Z" fill="black"/>
</svg>
