<svg width="242" height="201" viewBox="0 0 242 201" fill="none" xmlns="http://www.w3.org/2000/svg">
<path d="M2.96875 35.2826C1.86418 35.2826 0.96875 34.3872 0.96875 33.2826V2.5C0.96875 1.39543 1.86418 0.5 2.96875 0.5H137.168C138.272 0.5 139.168 1.39543 139.168 2.5V33.2826C139.168 34.3872 138.272 35.2826 137.168 35.2826H93.3415C92.2369 35.2826 91.3415 36.178 91.3415 37.2826V157.506C91.3415 158.611 90.4461 159.506 89.3415 159.506H50.7949C49.6903 159.506 48.7949 158.611 48.7949 157.506V37.2826C48.7949 36.178 47.8994 35.2826 46.7949 35.2826H2.96875Z" fill="#256AD2"/>
<path d="M2.96875 35.2826C1.86418 35.2826 0.96875 34.3872 0.96875 33.2826V2.5C0.96875 1.39543 1.86418 0.5 2.96875 0.5H137.168C138.272 0.5 139.168 1.39543 139.168 2.5V33.2826C139.168 34.3872 138.272 35.2826 137.168 35.2826H93.3415C92.2369 35.2826 91.3415 36.178 91.3415 37.2826V157.506C91.3415 158.611 90.4461 159.506 89.3415 159.506H50.7949C49.6903 159.506 48.7949 158.611 48.7949 157.506V37.2826C48.7949 36.178 47.8994 35.2826 46.7949 35.2826H2.96875Z" fill="black" fill-opacity="0.2"/>
<g clip-path="url(#clip0_642_1729)">
<path d="M107.731 80.6346C106.626 80.6346 105.731 79.7392 105.731 78.6346V48.0486C105.731 46.944 106.626 46.0486 107.731 46.0486H231.267C232.372 46.0486 233.267 46.944 233.267 48.0486V78.6149C233.267 79.7271 232.36 80.6257 231.247 80.6148L192.015 80.2299C190.903 80.219 189.996 81.1176 189.996 82.2298V124.05C189.996 125.034 189.28 125.872 188.308 126.025L149.036 132.226C147.823 132.418 146.725 131.479 146.725 130.25V82.6346C146.725 81.53 145.829 80.6346 144.725 80.6346H107.731Z" fill="#256AD2"/>
<path d="M107.731 80.6346C106.626 80.6346 105.731 79.7392 105.731 78.6346V48.0486C105.731 46.944 106.626 46.0486 107.731 46.0486H231.267C232.372 46.0486 233.267 46.944 233.267 48.0486V78.6149C233.267 79.7271 232.36 80.6257 231.247 80.6148L192.015 80.2299C190.903 80.219 189.996 81.1176 189.996 82.2298V124.05C189.996 125.034 189.28 125.872 188.308 126.025L149.036 132.226C147.823 132.418 146.725 131.479 146.725 130.25V82.6346C146.725 81.53 145.829 80.6346 144.725 80.6346H107.731Z" fill="black" fill-opacity="0.2"/>
</g>
<path d="M146.725 155.994C146.725 157.098 147.621 157.999 148.724 157.946C169.899 156.938 188.808 140.051 189.942 119C190.001 117.897 189.1 117 187.996 117H148.725C147.62 117 146.725 117.895 146.725 119V155.994Z" fill="#256AD2"/>
<path d="M146.725 155.994C146.725 157.098 147.621 157.999 148.724 157.946C169.899 156.938 188.808 140.051 189.942 119C190.001 117.897 189.1 117 187.996 117H148.725C147.62 117 146.725 117.895 146.725 119V155.994Z" fill="black" fill-opacity="0.2"/>
<path d="M48.7937 194.994C48.7937 196.098 49.6902 196.999 50.7935 196.946C71.9281 195.937 90.196 179.05 91.2913 158C91.3487 156.897 90.4478 156 89.3433 156H50.7937C49.6891 156 48.7937 156.895 48.7937 158V194.994Z" fill="#256AD2"/>
<path d="M48.7937 194.994C48.7937 196.098 49.6902 196.999 50.7935 196.946C71.9281 195.937 90.196 179.05 91.2913 158C91.3487 156.897 90.4478 156 89.3433 156H50.7937C49.6891 156 48.7937 156.895 48.7937 158V194.994Z" fill="black" fill-opacity="0.2"/>
<defs>
<clipPath id="clip0_642_1729">
<rect width="127.536" height="72.8779" fill="white" transform="translate(105.731 46.0486)"/>
</clipPath>
</defs>
</svg>
