<svg width="42" height="36" viewBox="0 0 42 36" fill="none" xmlns="http://www.w3.org/2000/svg">
<path d="M0.361603 6.52965C0.161895 6.52965 0 6.36775 0 6.16805V0.602487C0 0.402779 0.161896 0.240883 0.361604 0.240883H24.625C24.8247 0.240883 24.9866 0.402778 24.9866 0.602487V6.16805C24.9866 6.36775 24.8247 6.52965 24.625 6.52965H16.7012C16.5015 6.52965 16.3396 6.69155 16.3396 6.89125V28.6279C16.3396 28.8276 16.1777 28.9895 15.978 28.9895H9.00866C8.80895 28.9895 8.64706 28.8276 8.64706 28.6279V6.89125C8.64706 6.69155 8.48516 6.52965 8.28545 6.52965H0.361603Z" fill="#256AD2"/>
<path d="M19.3028 14.7294C19.1031 14.7294 18.9412 14.5675 18.9412 14.3678V8.83778C18.9412 8.63807 19.1031 8.47617 19.3028 8.47617H41.6384C41.8381 8.47617 42 8.63807 42 8.83778V14.3642C42 14.5653 41.8359 14.7278 41.6348 14.7258L34.5416 14.6562C34.3405 14.6542 34.1765 14.8167 34.1765 15.0178V22.5789C34.1765 22.7569 34.047 22.9084 33.8713 22.9361L26.7709 24.0572C26.5515 24.0919 26.3529 23.9222 26.3529 23.7V15.091C26.3529 14.8913 26.191 14.7294 25.9913 14.7294H19.3028Z" fill="#256AD2"/>
<path d="M26.3529 28.3545C26.3529 28.5542 26.515 28.717 26.7145 28.7075C30.5429 28.5252 33.9617 25.4719 34.1668 21.6659C34.1775 21.4665 34.0146 21.3043 33.8149 21.3043H26.7146C26.5148 21.3043 26.3529 21.4662 26.3529 21.6659V28.3545Z" fill="#256AD2"/>
<path d="M8.64685 35.4058C8.64685 35.6055 8.80894 35.7682 9.00842 35.7587C12.8296 35.5763 16.1325 32.5231 16.3305 28.7172C16.3409 28.5177 16.178 28.3556 15.9783 28.3556H9.00845C8.80874 28.3556 8.64685 28.5175 8.64685 28.7172V35.4058Z" fill="#256AD2"/>
</svg>
