<svg width="21" height="20" viewBox="0 0 21 20" fill="none" xmlns="http://www.w3.org/2000/svg">
<path d="M20.75 10C20.75 4.47716 16.2729 7.62939e-06 10.75 7.62939e-06C5.22715 7.62939e-06 0.75 4.47716 0.75 10C0.75 14.9913 4.40686 19.1283 9.1875 19.8785V12.8906H6.64844V10H9.1875V7.79688C9.1875 5.29063 10.6804 3.90626 12.9646 3.90626C14.0587 3.90626 15.2031 4.10157 15.2031 4.10157V6.56251H13.9421C12.6999 6.56251 12.3125 7.33335 12.3125 8.12417V10H15.0859L14.6426 12.8906H12.3125V19.8785C17.0931 19.1283 20.75 14.9913 20.75 10Z" fill="#1877F2"/>
<path d="M14.6426 12.8906L15.0859 10H12.3125V8.12416C12.3125 7.33334 12.6999 6.5625 13.9421 6.5625H15.2031V4.10156C15.2031 4.10156 14.0587 3.90625 12.9646 3.90625C10.6804 3.90625 9.1875 5.29062 9.1875 7.79688V10H6.64844V12.8906H9.1875V19.8785C9.69662 19.9584 10.2184 20 10.75 20C11.2816 20 11.8034 19.9584 12.3125 19.8785V12.8906H14.6426Z" fill="white"/>
</svg>
