<svg width="21" height="20" viewBox="0 0 21 20" fill="none" xmlns="http://www.w3.org/2000/svg">
<path d="M19.05 10.2083C19.05 9.55833 18.9917 8.93333 18.8833 8.33333H10.25V11.8792H15.1833C14.9708 13.025 14.325 13.9958 13.3542 14.6458V16.9458H16.3167C18.05 15.35 19.05 13 19.05 10.2083Z" fill="#4285F4"/>
<path d="M10.25 19.1667C12.725 19.1667 14.8 18.3458 16.3167 16.9458L13.3542 14.6458C12.5333 15.1958 11.4833 15.5208 10.25 15.5208C7.86252 15.5208 5.84168 13.9083 5.12085 11.7417H2.05835V14.1167C3.56668 17.1125 6.66668 19.1667 10.25 19.1667Z" fill="#34A853"/>
<path d="M5.12075 11.7417C4.93742 11.1917 4.83325 10.6042 4.83325 10C4.83325 9.39583 4.93742 8.80833 5.12075 8.25833V5.88333H2.05825C1.41659 7.16071 1.08269 8.57051 1.08325 10C1.08325 11.4792 1.43742 12.8792 2.05825 14.1167L5.12075 11.7417Z" fill="#FBBC05"/>
<path d="M10.25 4.47916C11.5958 4.47916 12.8042 4.94166 13.7542 5.85L16.3833 3.22083C14.7958 1.74166 12.7208 0.833328 10.25 0.833328C6.66668 0.833328 3.56668 2.8875 2.05835 5.88333L5.12085 8.25833C5.84168 6.09166 7.86252 4.47916 10.25 4.47916Z" fill="#EA4335"/>
</svg>
