<svg width="21" height="20" viewBox="0 0 21 20" fill="none" xmlns="http://www.w3.org/2000/svg">
<path fill-rule="evenodd" clip-rule="evenodd" d="M6.2587 4.31291e-07L9.5 9.08128e-07C10.0523 9.08128e-07 10.5 0.447716 10.5 1C10.5 1.55229 10.0523 2 9.5 2H6.3C5.44342 2 4.86113 2.00078 4.41104 2.03755C3.97262 2.07337 3.74842 2.1383 3.59202 2.21799C3.2157 2.40973 2.90974 2.7157 2.71799 3.09202C2.6383 3.24842 2.57337 3.47262 2.53755 3.91104C2.50078 4.36113 2.5 4.94342 2.5 5.8V14.2C2.5 15.0566 2.50078 15.6389 2.53755 16.089C2.57337 16.5274 2.6383 16.7516 2.71799 16.908C2.90973 17.2843 3.2157 17.5903 3.59202 17.782C3.74842 17.8617 3.97262 17.9266 4.41104 17.9625C4.86113 17.9992 5.44342 18 6.3 18H9.5C10.0523 18 10.5 18.4477 10.5 19C10.5 19.5523 10.0523 20 9.5 20H6.25868C5.45372 20 4.78937 20 4.24818 19.9558C3.68608 19.9099 3.16937 19.8113 2.68404 19.564C1.93139 19.1805 1.31947 18.5686 0.935975 17.816C0.688684 17.3306 0.59012 16.8139 0.544195 16.2518C0.499977 15.7106 0.499988 15.0463 0.5 14.2413V5.7587C0.499988 4.95373 0.499977 4.28937 0.544195 3.74817C0.59012 3.18608 0.688685 2.66937 0.935976 2.18404C1.31947 1.43139 1.93139 0.819468 2.68404 0.435975C3.16938 0.188684 3.68608 0.0901197 4.24818 0.0441945C4.78937 -2.28137e-05 5.45373 -1.23241e-05 6.2587 4.31291e-07ZM13.7929 4.29289C14.1834 3.90237 14.8166 3.90237 15.2071 4.29289L20.2071 9.2929C20.5976 9.68342 20.5976 10.3166 20.2071 10.7071L15.2071 15.7071C14.8166 16.0976 14.1834 16.0976 13.7929 15.7071C13.4024 15.3166 13.4024 14.6834 13.7929 14.2929L17.0858 11H7.5C6.94772 11 6.5 10.5523 6.5 10C6.5 9.44772 6.94772 9 7.5 9H17.0858L13.7929 5.70711C13.4024 5.31658 13.4024 4.68342 13.7929 4.29289Z" fill="$fillColor"/>
</svg>
