<svg width="24" height="24" viewBox="0 0 24 24" fill="none" xmlns="http://www.w3.org/2000/svg">
<path fill-rule="evenodd" clip-rule="evenodd" d="M11.7841 5C9.85107 5 8.28406 6.567 8.28406 8.5C8.28406 10.433 9.85107 12 11.7841 12C13.7171 12 15.2841 10.433 15.2841 8.5C15.2841 6.567 13.7171 5 11.7841 5ZM6.28406 8.5C6.28406 5.46243 8.7465 3 11.7841 3C14.8216 3 17.2841 5.46243 17.2841 8.5C17.2841 11.5376 14.8216 14 11.7841 14C8.7465 14 6.28406 11.5376 6.28406 8.5ZM11.7841 17C8.94503 17 6.41455 18.3693 4.79791 20.5088C4.46496 20.9495 3.83784 21.0368 3.3972 20.7038C2.95656 20.3709 2.86926 19.7438 3.20221 19.3031C5.17517 16.692 8.28294 15 11.7841 15C15.2852 15 18.393 16.692 20.3659 19.3031C20.6989 19.7438 20.6116 20.3709 20.1709 20.7038C19.7303 21.0368 19.1032 20.9495 18.7702 20.5088C17.1536 18.3693 14.6231 17 11.7841 17Z" fill="black"/>
</svg>
