<svg width="24" height="24" viewBox="0 0 24 24" fill="none" xmlns="http://www.w3.org/2000/svg">
<path fill-rule="evenodd" clip-rule="evenodd" d="M17.9705 4.18194C16.9942 3.20563 15.4113 3.20563 14.435 4.18194L5.41939 13.1976C3.75966 14.8573 3.75966 17.5482 5.41939 19.208C7.07912 20.8677 9.77007 20.8677 11.4298 19.208L20.4454 10.1923C20.8359 9.80182 21.4691 9.80182 21.8596 10.1923C22.2501 10.5829 22.2501 11.216 21.8596 11.6066L12.844 20.6222C10.4032 23.0629 6.44595 23.063 4.00517 20.6222C1.5644 18.1814 1.5644 14.2241 4.00517 11.7833L13.0208 2.76773C14.7781 1.01037 17.6274 1.01037 19.3847 2.76773C21.1421 4.52509 21.1421 7.37433 19.3847 9.13169L10.7227 17.7937C9.64875 18.8677 7.90754 18.8677 6.8336 17.7937C5.75966 16.7198 5.75966 14.9786 6.8336 13.9047L14.435 6.30326C14.8255 5.91274 15.4587 5.91274 15.8492 6.30326C16.2397 6.69378 16.2397 7.32695 15.8492 7.71747L8.24781 15.3189C7.95492 15.6118 7.95492 16.0866 8.24781 16.3795C8.54071 16.6724 9.01558 16.6724 9.30847 16.3795L17.9705 7.71747C18.9468 6.74116 18.9468 5.15825 17.9705 4.18194Z" fill="black"/>
</svg>
