<svg width="18" height="18" viewBox="0 0 18 18" fill="none" xmlns="http://www.w3.org/2000/svg">
<path fill-rule="evenodd" clip-rule="evenodd" d="M12.5013 0.302716C12.9838 0.102864 13.501 0 14.0232 0C14.5454 0 15.0626 0.102864 15.5451 0.302716C16.0275 0.502569 16.4659 0.795497 16.8352 1.16478C17.2045 1.53406 17.4974 1.97246 17.6973 2.45495C17.8971 2.93744 18 3.45456 18 3.9768C18 4.49904 17.8971 5.01617 17.6973 5.49866C17.4974 5.98114 17.2045 6.41954 16.8352 6.78882L15.8084 7.81564C15.8045 7.81971 15.8005 7.82375 15.7965 7.82777C15.7924 7.83179 15.7884 7.83577 15.7843 7.83971L5.92829 17.6958C5.73348 17.8906 5.46927 18 5.19378 18H1.03876C0.465067 18 0 17.5349 0 16.9612V12.8062C0 12.5307 0.10944 12.2665 0.304244 12.0717L11.2112 1.16478C11.5805 0.795497 12.0189 0.502569 12.5013 0.302716ZM15.0619 5.62414L15.3662 5.3198C15.5426 5.14343 15.6825 4.93406 15.7779 4.70363C15.8734 4.4732 15.9225 4.22622 15.9225 3.9768C15.9225 3.72738 15.8734 3.4804 15.7779 3.24997C15.6825 3.01954 15.5426 2.81017 15.3662 2.6338C15.1898 2.45744 14.9805 2.31753 14.75 2.22209C14.5196 2.12664 14.2726 2.07751 14.0232 2.07751C13.7738 2.07751 13.5268 2.12664 13.2964 2.22209C13.0659 2.31753 12.8566 2.45744 12.6802 2.6338L12.3759 2.93814L15.0619 5.62414ZM10.9068 4.40716L13.5928 7.09316L4.76351 15.9225H2.07751V13.2365L10.9068 4.40716Z" fill="#5E5E5E"/>
</svg>
