<svg aria-hidden="true" style="position: absolute; width: 0; height: 0; overflow: hidden;" version="1.1" xmlns="http://www.w3.org/2000/svg" xmlns:xlink="http://www.w3.org/1999/xlink">

  <symbol xmlns="http://www.w3.org/2000/svg" viewBox="0 0 24 24" id="icon-attach-file">
    <path fill-rule="evenodd" clip-rule="evenodd" d="M17.9705 4.18194C16.9942 3.20563 15.4113 3.20563 14.435 4.18194L5.41939 13.1976C3.75966 14.8573 3.75966 17.5482 5.41939 19.208C7.07912 20.8677 9.77007 20.8677 11.4298 19.208L20.4454 10.1923C20.8359 9.80182 21.4691 9.80182 21.8596 10.1923C22.2501 10.5829 22.2501 11.216 21.8596 11.6066L12.844 20.6222C10.4032 23.0629 6.44595 23.063 4.00517 20.6222C1.5644 18.1814 1.5644 14.2241 4.00517 11.7833L13.0208 2.76773C14.7781 1.01037 17.6274 1.01037 19.3847 2.76773C21.1421 4.52509 21.1421 7.37433 19.3847 9.13169L10.7227 17.7937C9.64875 18.8677 7.90754 18.8677 6.8336 17.7937C5.75966 16.7198 5.75966 14.9786 6.8336 13.9047L14.435 6.30326C14.8255 5.91274 15.4587 5.91274 15.8492 6.30326C16.2397 6.69378 16.2397 7.32695 15.8492 7.71747L8.24781 15.3189C7.95492 15.6118 7.95492 16.0866 8.24781 16.3795C8.54071 16.6724 9.01558 16.6724 9.30847 16.3795L17.9705 7.71747C18.9468 6.74116 18.9468 5.15825 17.9705 4.18194Z"></path>
  </symbol>

  <symbol xmlns="http://www.w3.org/2000/svg" viewBox="0 0 24 24" id="icon-dms">
    <path fill-rule="evenodd" clip-rule="evenodd" d="M6.7587 1H14.2413C15.0463 0.999988 15.7106 0.999977 16.2518 1.04419C16.8139 1.09012 17.3306 1.18868 17.816 1.43597C18.5686 1.81947 19.1805 2.43139 19.564 3.18404C19.8113 3.66937 19.9099 4.18608 19.9558 4.74817C20 5.28936 20 5.95372 20 6.75868V10.0176C20.0672 10.0212 20.1323 10.0254 20.195 10.0306C20.5904 10.0629 20.9836 10.1342 21.362 10.327C21.9265 10.6146 22.3854 11.0735 22.673 11.638C22.8658 12.0164 22.9371 12.4096 22.9694 12.805C23 13.1795 23 13.6343 23 14.1614V16.9463C23 17.3849 23 17.7634 22.9787 18.0767C22.9561 18.4065 22.9066 18.7364 22.7716 19.0623C22.4672 19.7974 21.8831 20.3814 21.1481 20.6859C20.8221 20.8209 20.4922 20.8704 20.1624 20.8929C20.1101 20.8965 20.0559 20.8995 20 20.902V22C20 22.3723 19.7932 22.7138 19.4632 22.8862C19.1333 23.0587 18.7348 23.0336 18.4292 22.8211L16.2528 21.3079C15.9175 21.0749 15.8497 21.0324 15.7856 21.0034C15.7118 20.9699 15.6341 20.9455 15.5543 20.9308C15.4851 20.9181 15.4052 20.9143 14.9969 20.9143H13.1614C12.6343 20.9143 12.1795 20.9143 11.805 20.8837C11.4096 20.8514 11.0164 20.7801 10.638 20.5873C10.0735 20.2997 9.6146 19.8407 9.32698 19.2763C9.13419 18.8979 9.06287 18.5047 9.03057 18.1093C9.01402 17.9068 9.00642 17.6808 9.00294 17.4326L7.61001 18.843C7.41846 19.037 7.23059 19.2272 7.06593 19.3669C6.91969 19.4909 6.61018 19.7413 6.17975 19.7771C5.69992 19.8169 5.23013 19.624 4.91677 19.2585C4.63564 18.9306 4.59139 18.5349 4.57449 18.3439C4.55547 18.1289 4.55551 17.8615 4.55555 17.5889L4.55556 16.0111C4.53633 15.9951 4.49176 15.9682 4.42027 15.9578C2.67166 15.7016 1.29837 14.3283 1.04223 12.5797C0.999752 12.2897 0.999851 11.9625 0.999984 11.5208C0.999992 11.4958 0.999999 11.4703 0.999999 11.4444L0.999999 6.7587C0.999986 5.95373 0.999976 5.28937 1.04419 4.74818C1.09012 4.18608 1.18868 3.66937 1.43597 3.18404C1.81947 2.43139 2.43139 1.81947 3.18404 1.43597C3.66937 1.18868 4.18608 1.09012 4.74817 1.04419C5.28937 0.999977 5.95373 0.999988 6.7587 1ZM11 14.9994C11 14.9998 11 15.0003 11 15.0007V16.7143C11 17.2908 11.0008 17.6631 11.0239 17.9465C11.0461 18.2181 11.0838 18.3188 11.109 18.3683C11.2049 18.5564 11.3578 18.7094 11.546 18.8053C11.5955 18.8305 11.6962 18.8682 11.9678 18.8904C12.2512 18.9135 12.6234 18.9143 13.2 18.9143H14.9969C15.0181 18.9143 15.0391 18.9143 15.0599 18.9143C15.3706 18.914 15.6448 18.9138 15.9168 18.964C16.1561 19.0081 16.3891 19.0811 16.6108 19.1815C16.8628 19.2956 17.0877 19.4523 17.3427 19.6298C17.3598 19.6417 17.377 19.6537 17.3944 19.6658L18 20.0868V19.9143C18 19.362 18.4477 18.9143 19 18.9143C19.4796 18.9143 19.7893 18.9137 20.0262 18.8976C20.2542 18.882 20.3411 18.8554 20.3827 18.8382C20.6277 18.7367 20.8224 18.542 20.9239 18.297C20.9411 18.2554 20.9677 18.1685 20.9833 17.9405C20.9995 17.7035 21 17.3939 21 16.9143V14.2C21 13.6234 20.9992 13.2512 20.9761 12.9678C20.9539 12.6962 20.9162 12.5955 20.891 12.546C20.7951 12.3578 20.6422 12.2049 20.454 12.109C20.4045 12.0838 20.3038 12.0461 20.0322 12.0239C19.7488 12.0008 19.3766 12 18.8 12H13.2C12.6234 12 12.2512 12.0008 11.9678 12.0239C11.6962 12.0461 11.5955 12.0838 11.546 12.109C11.3578 12.2049 11.2049 12.3578 11.109 12.546C11.0838 12.5955 11.0461 12.6962 11.0239 12.9678C11.0008 13.2512 11 13.6234 11 14.2V14.9994ZM9 14.5894L6.55555 17.0644V15.9916C6.55555 14.8142 5.59828 14.109 4.71013 13.9789C3.83583 13.8508 3.14918 13.1642 3.02112 12.2899C3.00266 12.1639 3 11.9959 3 11.4444V6.8C3 5.94342 3.00078 5.36113 3.03755 4.91104C3.07337 4.47262 3.1383 4.24842 3.21799 4.09202C3.40973 3.7157 3.71569 3.40973 4.09202 3.21799C4.24842 3.1383 4.47262 3.07337 4.91104 3.03755C5.36113 3.00078 5.94342 3 6.8 3H14.2C15.0566 3 15.6389 3.00078 16.089 3.03755C16.5274 3.07337 16.7516 3.1383 16.908 3.21799C17.2843 3.40973 17.5903 3.7157 17.782 4.09202C17.8617 4.24842 17.9266 4.47262 17.9624 4.91104C17.9992 5.36113 18 5.94342 18 6.8V10L13.1615 10C12.6343 9.99998 12.1795 9.99997 11.805 10.0306C11.4096 10.0629 11.0164 10.1342 10.638 10.327C10.0735 10.6146 9.6146 11.0735 9.32698 11.638C9.13419 12.0164 9.06287 12.4096 9.03057 12.805C8.99997 13.1795 8.99998 13.6343 9 14.1615L9 14.5894Z"></path>
  </symbol>

  <symbol fill="none" xmlns="http://www.w3.org/2000/svg" viewBox="0 0 24 24" id="icon-edit">
    <path fill-rule="evenodd" clip-rule="evenodd" d="M15.5013 3.30272C15.9838 3.10286 16.501 3 17.0232 3C17.5454 3 18.0626 3.10286 18.5451 3.30272C19.0275 3.50257 19.4659 3.7955 19.8352 4.16478C20.2045 4.53406 20.4974 4.97246 20.6973 5.45495C20.8971 5.93744 21 6.45456 21 6.9768C21 7.49904 20.8971 8.01617 20.6973 8.49866C20.4974 8.98114 20.2045 9.41954 19.8352 9.78882L18.8084 10.8156C18.8045 10.8197 18.8005 10.8238 18.7965 10.8278C18.7924 10.8318 18.7884 10.8358 18.7843 10.8397L8.92829 20.6958C8.73348 20.8906 8.46927 21 8.19378 21H4.03876C3.46507 21 3 20.5349 3 19.9612V15.8062C3 15.5307 3.10944 15.2665 3.30424 15.0717L14.2112 4.16478C14.5805 3.7955 15.0189 3.50257 15.5013 3.30272ZM18.0619 8.62414L18.3662 8.3198C18.5426 8.14343 18.6825 7.93406 18.7779 7.70363C18.8734 7.4732 18.9225 7.22622 18.9225 6.9768C18.9225 6.72738 18.8734 6.4804 18.7779 6.24997C18.6825 6.01954 18.5426 5.81017 18.3662 5.6338C18.1898 5.45744 17.9805 5.31753 17.75 5.22209C17.5196 5.12664 17.2726 5.07751 17.0232 5.07751C16.7738 5.07751 16.5268 5.12664 16.2964 5.22209C16.0659 5.31753 15.8566 5.45744 15.6802 5.6338L15.3759 5.93814L18.0619 8.62414ZM13.9068 7.40716L16.5928 10.0932L7.76351 18.9225H5.07751V16.2365L13.9068 7.40716Z" fill="black"></path>
  </symbol>

  <symbol fill="none" xmlns="http://www.w3.org/2000/svg" viewBox="0 0 24 24" id="icon-message">
    <path fill-rule="evenodd" clip-rule="evenodd" d="M7.75871 2H16.2413C17.0463 1.99999 17.7106 1.99998 18.2518 2.04419C18.8139 2.09012 19.3306 2.18868 19.816 2.43597C20.5686 2.81947 21.1805 3.43139 21.564 4.18404C21.8113 4.66937 21.9099 5.18608 21.9558 5.74817C22 6.28936 22 6.95372 22 7.75868V13.2413C22 14.0463 22 14.7106 21.9558 15.2518C21.9099 15.8139 21.8113 16.3306 21.564 16.816C21.1805 17.5686 20.5686 18.1805 19.816 18.564C19.3306 18.8113 18.8139 18.9099 18.2518 18.9558C17.7106 19 17.0463 19 16.2413 19H13.6838C13.0196 19 12.8262 19.0047 12.6503 19.0408C12.4737 19.0771 12.3029 19.137 12.1424 19.219C11.9825 19.3007 11.8285 19.4178 11.3099 19.8327L8.89679 21.7632C8.71311 21.9102 8.52588 22.06 8.36128 22.1689C8.20385 22.273 7.89861 22.4593 7.50162 22.4597C7.04481 22.4602 6.61267 22.2525 6.32769 21.8955C6.08003 21.5852 6.03483 21.2305 6.01776 21.0425C5.99991 20.846 5.99995 20.6062 6 20.371L6 18.9918C5.60819 18.9789 5.2722 18.9461 4.96473 18.8637C3.58436 18.4938 2.50617 17.4156 2.1363 16.0353C1.99921 15.5236 1.99952 14.933 1.99996 14.1376C1.99998 14.0924 2 14.0465 2 14L2 7.7587C1.99999 6.95373 1.99998 6.28937 2.0442 5.74817C2.09012 5.18608 2.18869 4.66937 2.43598 4.18404C2.81947 3.43139 3.43139 2.81947 4.18404 2.43597C4.66938 2.18868 5.18608 2.09012 5.74818 2.04419C6.28937 1.99998 6.95374 1.99999 7.75871 2ZM5.91104 4.03755C5.47263 4.07337 5.24842 4.1383 5.09202 4.21799C4.7157 4.40973 4.40974 4.7157 4.21799 5.09202C4.1383 5.24842 4.07338 5.47262 4.03756 5.91104C4.00078 6.36113 4.00001 6.94342 4.00001 7.8V14C4.00001 14.9944 4.00859 15.2954 4.06815 15.5176C4.25309 16.2078 4.79218 16.7469 5.48237 16.9319C5.70464 16.9914 6.00565 17 7 17C7.55229 17 8 17.4477 8 18V19.9194L10.0605 18.271C10.0833 18.2528 10.1057 18.2348 10.1278 18.2171C10.5499 17.8791 10.869 17.6237 11.2325 17.4379C11.5535 17.274 11.8951 17.1541 12.2482 17.0817C12.6481 16.9996 13.0568 16.9998 13.5975 17C13.6259 17 13.6546 17 13.6838 17H16.2C17.0566 17 17.6389 16.9992 18.089 16.9624C18.5274 16.9266 18.7516 16.8617 18.908 16.782C19.2843 16.5903 19.5903 16.2843 19.782 15.908C19.8617 15.7516 19.9266 15.5274 19.9625 15.089C19.9992 14.6389 20 14.0566 20 13.2V7.8C20 6.94342 19.9992 6.36113 19.9625 5.91104C19.9266 5.47262 19.8617 5.24842 19.782 5.09202C19.5903 4.7157 19.2843 4.40973 18.908 4.21799C18.7516 4.1383 18.5274 4.07337 18.089 4.03755C17.6389 4.00078 17.0566 4 16.2 4H7.8C6.94343 4 6.36113 4.00078 5.91104 4.03755Z" fill="black"></path>
  </symbol>

    <symbol xmlns="http://www.w3.org/2000/svg" viewBox="0 0 24 24" id="icon-logout">
    <path fill-rule="evenodd" clip-rule="evenodd" d="M7.7587 2L11 2C11.5523 2 12 2.44772 12 3C12 3.55229 11.5523 4 11 4H7.8C6.94342 4 6.36113 4.00078 5.91104 4.03755C5.47262 4.07337 5.24842 4.1383 5.09202 4.21799C4.7157 4.40973 4.40974 4.7157 4.21799 5.09202C4.1383 5.24842 4.07337 5.47262 4.03755 5.91104C4.00078 6.36113 4 6.94342 4 7.8V16.2C4 17.0566 4.00078 17.6389 4.03755 18.089C4.07337 18.5274 4.1383 18.7516 4.21799 18.908C4.40973 19.2843 4.7157 19.5903 5.09202 19.782C5.24842 19.8617 5.47262 19.9266 5.91104 19.9624C6.36113 19.9992 6.94342 20 7.8 20H11C11.5523 20 12 20.4477 12 21C12 21.5523 11.5523 22 11 22H7.75868C6.95372 22 6.28936 22 5.74818 21.9558C5.18608 21.9099 4.66937 21.8113 4.18404 21.564C3.43139 21.1805 2.81947 20.5686 2.43598 19.816C2.18868 19.3306 2.09012 18.8139 2.04419 18.2518C1.99998 17.7106 1.99999 17.0463 2 16.2413V7.7587C1.99999 6.95373 1.99998 6.28937 2.04419 5.74817C2.09012 5.18608 2.18868 4.66937 2.43598 4.18404C2.81947 3.43139 3.43139 2.81947 4.18404 2.43597C4.66937 2.18868 5.18608 2.09012 5.74818 2.04419C6.28937 1.99998 6.95373 1.99999 7.7587 2ZM15.2929 6.29289C15.6834 5.90237 16.3166 5.90237 16.7071 6.29289L21.7071 11.2929C22.0976 11.6834 22.0976 12.3166 21.7071 12.7071L16.7071 17.7071C16.3166 18.0976 15.6834 18.0976 15.2929 17.7071C14.9024 17.3166 14.9024 16.6834 15.2929 16.2929L18.5858 13H9C8.44772 13 8 12.5523 8 12C8 11.4477 8.44772 11 9 11H18.5858L15.2929 7.70711C14.9024 7.31658 14.9024 6.68342 15.2929 6.29289Z"></path>
  </symbol>

  <symbol fill="none" xmlns="http://www.w3.org/2000/svg" viewBox="0 0 24 24" id="icon-more">
    <path fill-rule="evenodd" clip-rule="evenodd" d="M3 12C3 10.8954 3.89543 10 5 10C6.10457 10 7 10.8954 7 12C7 13.1046 6.10457 14 5 14C3.89543 14 3 13.1046 3 12ZM10 12C10 10.8954 10.8954 10 12 10C13.1046 10 14 10.8954 14 12C14 13.1046 13.1046 14 12 14C10.8954 14 10 13.1046 10 12ZM17 12C17 10.8954 17.8954 10 19 10C20.1046 10 21 10.8954 21 12C21 13.1046 20.1046 14 19 14C17.8954 14 17 13.1046 17 12Z" fill="black"></path>
  </symbol>

  <symbol xmlns="http://www.w3.org/2000/svg" viewBox="0 0 24 24" id="icon-photo-icon">
    <path fill-rule="evenodd" clip-rule="evenodd" d="M11.7841 5C9.85107 5 8.28406 6.567 8.28406 8.5C8.28406 10.433 9.85107 12 11.7841 12C13.7171 12 15.2841 10.433 15.2841 8.5C15.2841 6.567 13.7171 5 11.7841 5ZM6.28406 8.5C6.28406 5.46243 8.7465 3 11.7841 3C14.8216 3 17.2841 5.46243 17.2841 8.5C17.2841 11.5376 14.8216 14 11.7841 14C8.7465 14 6.28406 11.5376 6.28406 8.5ZM11.7841 17C8.94503 17 6.41455 18.3693 4.79791 20.5088C4.46496 20.9495 3.83784 21.0368 3.3972 20.7038C2.95656 20.3709 2.86926 19.7438 3.20221 19.3031C5.17517 16.692 8.28294 15 11.7841 15C15.2852 15 18.393 16.692 20.3659 19.3031C20.6989 19.7438 20.6116 20.3709 20.1709 20.7038C19.7303 21.0368 19.1032 20.9495 18.7702 20.5088C17.1536 18.3693 14.6231 17 11.7841 17Z"></path>
  </symbol>

  <symbol fill="none" xmlns="http://www.w3.org/2000/svg" viewBox="0 0 24 24" id="icon-report">
    <path d="M12 8V12M12 16H12.01M22 12C22 17.5228 17.5228 22 12 22C6.47715 22 2 17.5228 2 12C2 6.47715 6.47715 2 12 2C17.5228 2 22 6.47715 22 12Z" stroke="black" stroke-width="2" stroke-linecap="round" stroke-linejoin="round"></path>
  </symbol>

  <symbol xmlns="http://www.w3.org/2000/svg" viewBox="0 0 24 24" id="icon-rooms">
    <path fill-rule="evenodd" clip-rule="evenodd" d="M9.50001 4C7.56702 4 6.00001 5.567 6.00001 7.5C6.00001 9.433 7.56702 11 9.50001 11C11.433 11 13 9.433 13 7.5C13 5.567 11.433 4 9.50001 4ZM4.00001 7.5C4.00001 4.46243 6.46245 2 9.50001 2C12.5376 2 15 4.46243 15 7.5C15 10.5376 12.5376 13 9.50001 13C6.46245 13 4.00001 10.5376 4.00001 7.5ZM15.1045 3.02273C15.3503 2.52815 15.9505 2.32646 16.445 2.57225C18.2536 3.47103 19.5 5.33904 19.5 7.5C19.5 9.66096 18.2536 11.529 16.445 12.4278C15.9505 12.6735 15.3503 12.4719 15.1045 11.9773C14.8587 11.4827 15.0604 10.8825 15.555 10.6367C16.7099 10.0628 17.5 8.87276 17.5 7.5C17.5 6.12724 16.7099 4.9372 15.555 4.36327C15.0604 4.11749 14.8587 3.51731 15.1045 3.02273ZM9.50001 17C6.96125 17 4.58754 18.3253 2.78634 20.6178C2.44513 21.0521 1.81648 21.1275 1.3822 20.7863C0.947925 20.4451 0.872478 19.8165 1.21369 19.3822C3.30547 16.7198 6.21714 15 9.50001 15C12.7829 15 15.6946 16.7198 17.7863 19.3822C18.1275 19.8165 18.0521 20.4451 17.6178 20.7863C17.1835 21.1275 16.5549 21.0521 16.2137 20.6178C14.4125 18.3253 12.0388 17 9.50001 17ZM17.0889 16.3541C17.3166 15.851 17.9091 15.6276 18.4123 15.8553C20.0902 16.6146 21.5741 17.8393 22.7863 19.3822C23.1275 19.8165 23.0521 20.4451 22.6178 20.7863C22.1835 21.1275 21.5549 21.0521 21.2137 20.6178C20.171 19.2907 18.9327 18.2861 17.5877 17.6775C17.0846 17.4498 16.8613 16.8573 17.0889 16.3541Z"></path>
  </symbol>

  <symbol xmlns="http://www.w3.org/2000/svg" viewBox="0 0 24 24" id="icon-send">
    <path fill-rule="evenodd" clip-rule="evenodd" d="M19.334 6.07975L11.668 13.7457L14.0011 19.7451L19.334 6.07975ZM10.2538 12.3315L17.9198 4.66554L4.25438 9.99837L10.2538 12.3315ZM20.6472 1.47411C20.8303 1.4209 21.1988 1.32529 21.5946 1.4575C22.0417 1.60688 22.3926 1.95779 22.542 2.40493C22.6742 2.8007 22.5786 3.16916 22.5254 3.35235C22.4674 3.55198 22.3745 3.7899 22.2813 4.0286L15.6639 20.9857C15.5598 21.2526 15.459 21.511 15.3604 21.7105C15.2751 21.8828 15.0855 22.2492 14.6919 22.4536C14.2578 22.6791 13.741 22.6788 13.3072 22.4528C12.9139 22.2479 12.7246 21.8813 12.6396 21.7089C12.5412 21.5093 12.4407 21.2507 12.3369 20.9838L9.72699 14.2725L3.05101 11.6763C3.03924 11.6717 3.02748 11.6672 3.01574 11.6626C2.74878 11.5588 2.49024 11.4583 2.29065 11.3599C2.11819 11.2749 1.75163 11.0856 1.54668 10.6923C1.32067 10.2585 1.32036 9.74172 1.54586 9.30766C1.75035 8.91405 2.11669 8.72436 2.28905 8.63914C2.48853 8.5405 2.74695 8.43969 3.01379 8.3356C3.02552 8.33103 3.03727 8.32644 3.04904 8.32185L19.9709 1.7182C20.2096 1.625 20.4475 1.5321 20.6472 1.47411Z"></path>
  </symbol>

  <symbol fill="none" xmlns="http://www.w3.org/2000/svg" viewBox="0 0 24 24" id="icon-x-close">
    <path d="M18 6L6 18M6 6L18 18" stroke="black" stroke-width="2" stroke-linecap="round" stroke-linejoin="round"></path>
  </symbol>

  <symbol xmlns="http://www.w3.org/2000/svg" viewBox="0 0 24 24" id="icon-search">
    <path fill-rule="evenodd" clip-rule="evenodd" d="M11 4C7.13401 4 4 7.13401 4 11C4 14.866 7.13401 18 11 18C12.8859 18 14.5977 17.2542 15.8564 16.0414C15.8827 16.0072 15.9115 15.9742 15.9429 15.9429C15.9742 15.9115 16.0072 15.8827 16.0414 15.8564C17.2542 14.5977 18 12.8859 18 11C18 7.13401 14.866 4 11 4ZM18.0319 16.6177C19.2635 15.078 20 13.125 20 11C20 6.02944 15.9706 2 11 2C6.02944 2 2 6.02944 2 11C2 15.9706 6.02944 20 11 20C13.125 20 15.078 19.2635 16.6177 18.0319L20.2929 21.7071C20.6834 22.0976 21.3166 22.0976 21.7071 21.7071C22.0976 21.3166 22.0976 20.6834 21.7071 20.2929L18.0319 16.6177Z"></path>
  </symbol>

  <symbol fill="none" xmlns="http://www.w3.org/2000/svg" viewBox="0 0 24 24" id="icon-about">
    <path fill-rule="evenodd" clip-rule="evenodd" d="M12 3C7.02944 3 3 7.02944 3 12C3 16.9706 7.02944 21 12 21C16.9706 21 21 16.9706 21 12C21 7.02944 16.9706 3 12 3ZM1 12C1 5.92487 5.92487 1 12 1C18.0751 1 23 5.92487 23 12C23 18.0751 18.0751 23 12 23C5.92487 23 1 18.0751 1 12ZM11 8C11 7.44772 11.4477 7 12 7H12.01C12.5623 7 13.01 7.44772 13.01 8C13.01 8.55228 12.5623 9 12.01 9H12C11.4477 9 11 8.55228 11 8ZM12 11C12.5523 11 13 11.4477 13 12V16C13 16.5523 12.5523 17 12 17C11.4477 17 11 16.5523 11 16V12C11 11.4477 11.4477 11 12 11Z" fill="#5E5E5E"></path>
  </symbol>

  <symbol fill="none" xmlns="http://www.w3.org/2000/svg" viewBox="0 0 24 24" id="icon-arrow-left">
    <path fill-rule="evenodd" clip-rule="evenodd" d="M15.7071 5.29289C16.0976 5.68342 16.0976 6.31658 15.7071 6.70711L10.4142 12L15.7071 17.2929C16.0976 17.6834 16.0976 18.3166 15.7071 18.7071C15.3166 19.0976 14.6834 19.0976 14.2929 18.7071L8.29289 12.7071C7.90237 12.3166 7.90237 11.6834 8.29289 11.2929L14.2929 5.29289C14.6834 4.90237 15.3166 4.90237 15.7071 5.29289Z" fill="#5E5E5E"></path>
  </symbol>

</svg>
