<svg aria-hidden="true" style="position: absolute; width: 0; height: 0; overflow: hidden;" version="1.1" xmlns="http://www.w3.org/2000/svg" xmlns:xlink="http://www.w3.org/1999/xlink">

  <symbol xmlns="http://www.w3.org/2000/svg" viewBox="0 0 24 24" id="icon-attach-file">
    <path fill-rule="evenodd" clip-rule="evenodd" d="M17.9705 4.18194C16.9942 3.20563 15.4113 3.20563 14.435 4.18194L5.41939 13.1976C3.75966 14.8573 3.75966 17.5482 5.41939 19.208C7.07912 20.8677 9.77007 20.8677 11.4298 19.208L20.4454 10.1923C20.8359 9.80182 21.4691 9.80182 21.8596 10.1923C22.2501 10.5829 22.2501 11.216 21.8596 11.6066L12.844 20.6222C10.4032 23.0629 6.44595 23.063 4.00517 20.6222C1.5644 18.1814 1.5644 14.2241 4.00517 11.7833L13.0208 2.76773C14.7781 1.01037 17.6274 1.01037 19.3847 2.76773C21.1421 4.52509 21.1421 7.37433 19.3847 9.13169L10.7227 17.7937C9.64875 18.8677 7.90754 18.8677 6.8336 17.7937C5.75966 16.7198 5.75966 14.9786 6.8336 13.9047L14.435 6.30326C14.8255 5.91274 15.4587 5.91274 15.8492 6.30326C16.2397 6.69378 16.2397 7.32695 15.8492 7.71747L8.24781 15.3189C7.95492 15.6118 7.95492 16.0866 8.24781 16.3795C8.54071 16.6724 9.01558 16.6724 9.30847 16.3795L17.9705 7.71747C18.9468 6.74116 18.9468 5.15825 17.9705 4.18194Z"></path>
  </symbol>

  <symbol fill="none" xmlns="http://www.w3.org/2000/svg" viewBox="0 0 24 24" id="icon-edit">
    <path fill-rule="evenodd" clip-rule="evenodd" d="M15.5013 3.30272C15.9838 3.10286 16.501 3 17.0232 3C17.5454 3 18.0626 3.10286 18.5451 3.30272C19.0275 3.50257 19.4659 3.7955 19.8352 4.16478C20.2045 4.53406 20.4974 4.97246 20.6973 5.45495C20.8971 5.93744 21 6.45456 21 6.9768C21 7.49904 20.8971 8.01617 20.6973 8.49866C20.4974 8.98114 20.2045 9.41954 19.8352 9.78882L18.8084 10.8156C18.8045 10.8197 18.8005 10.8238 18.7965 10.8278C18.7924 10.8318 18.7884 10.8358 18.7843 10.8397L8.92829 20.6958C8.73348 20.8906 8.46927 21 8.19378 21H4.03876C3.46507 21 3 20.5349 3 19.9612V15.8062C3 15.5307 3.10944 15.2665 3.30424 15.0717L14.2112 4.16478C14.5805 3.7955 15.0189 3.50257 15.5013 3.30272ZM18.0619 8.62414L18.3662 8.3198C18.5426 8.14343 18.6825 7.93406 18.7779 7.70363C18.8734 7.4732 18.9225 7.22622 18.9225 6.9768C18.9225 6.72738 18.8734 6.4804 18.7779 6.24997C18.6825 6.01954 18.5426 5.81017 18.3662 5.6338C18.1898 5.45744 17.9805 5.31753 17.75 5.22209C17.5196 5.12664 17.2726 5.07751 17.0232 5.07751C16.7738 5.07751 16.5268 5.12664 16.2964 5.22209C16.0659 5.31753 15.8566 5.45744 15.6802 5.6338L15.3759 5.93814L18.0619 8.62414ZM13.9068 7.40716L16.5928 10.0932L7.76351 18.9225H5.07751V16.2365L13.9068 7.40716Z" fill="black"></path>
  </symbol>

  <symbol fill="none" xmlns="http://www.w3.org/2000/svg" viewBox="0 0 24 24" id="icon-message">
    <path fill-rule="evenodd" clip-rule="evenodd" d="M7.75871 2H16.2413C17.0463 1.99999 17.7106 1.99998 18.2518 2.04419C18.8139 2.09012 19.3306 2.18868 19.816 2.43597C20.5686 2.81947 21.1805 3.43139 21.564 4.18404C21.8113 4.66937 21.9099 5.18608 21.9558 5.74817C22 6.28936 22 6.95372 22 7.75868V13.2413C22 14.0463 22 14.7106 21.9558 15.2518C21.9099 15.8139 21.8113 16.3306 21.564 16.816C21.1805 17.5686 20.5686 18.1805 19.816 18.564C19.3306 18.8113 18.8139 18.9099 18.2518 18.9558C17.7106 19 17.0463 19 16.2413 19H13.6838C13.0196 19 12.8262 19.0047 12.6503 19.0408C12.4737 19.0771 12.3029 19.137 12.1424 19.219C11.9825 19.3007 11.8285 19.4178 11.3099 19.8327L8.89679 21.7632C8.71311 21.9102 8.52588 22.06 8.36128 22.1689C8.20385 22.273 7.89861 22.4593 7.50162 22.4597C7.04481 22.4602 6.61267 22.2525 6.32769 21.8955C6.08003 21.5852 6.03483 21.2305 6.01776 21.0425C5.99991 20.846 5.99995 20.6062 6 20.371L6 18.9918C5.60819 18.9789 5.2722 18.9461 4.96473 18.8637C3.58436 18.4938 2.50617 17.4156 2.1363 16.0353C1.99921 15.5236 1.99952 14.933 1.99996 14.1376C1.99998 14.0924 2 14.0465 2 14L2 7.7587C1.99999 6.95373 1.99998 6.28937 2.0442 5.74817C2.09012 5.18608 2.18869 4.66937 2.43598 4.18404C2.81947 3.43139 3.43139 2.81947 4.18404 2.43597C4.66938 2.18868 5.18608 2.09012 5.74818 2.04419C6.28937 1.99998 6.95374 1.99999 7.75871 2ZM5.91104 4.03755C5.47263 4.07337 5.24842 4.1383 5.09202 4.21799C4.7157 4.40973 4.40974 4.7157 4.21799 5.09202C4.1383 5.24842 4.07338 5.47262 4.03756 5.91104C4.00078 6.36113 4.00001 6.94342 4.00001 7.8V14C4.00001 14.9944 4.00859 15.2954 4.06815 15.5176C4.25309 16.2078 4.79218 16.7469 5.48237 16.9319C5.70464 16.9914 6.00565 17 7 17C7.55229 17 8 17.4477 8 18V19.9194L10.0605 18.271C10.0833 18.2528 10.1057 18.2348 10.1278 18.2171C10.5499 17.8791 10.869 17.6237 11.2325 17.4379C11.5535 17.274 11.8951 17.1541 12.2482 17.0817C12.6481 16.9996 13.0568 16.9998 13.5975 17C13.6259 17 13.6546 17 13.6838 17H16.2C17.0566 17 17.6389 16.9992 18.089 16.9624C18.5274 16.9266 18.7516 16.8617 18.908 16.782C19.2843 16.5903 19.5903 16.2843 19.782 15.908C19.8617 15.7516 19.9266 15.5274 19.9625 15.089C19.9992 14.6389 20 14.0566 20 13.2V7.8C20 6.94342 19.9992 6.36113 19.9625 5.91104C19.9266 5.47262 19.8617 5.24842 19.782 5.09202C19.5903 4.7157 19.2843 4.40973 18.908 4.21799C18.7516 4.1383 18.5274 4.07337 18.089 4.03755C17.6389 4.00078 17.0566 4 16.2 4H7.8C6.94343 4 6.36113 4.00078 5.91104 4.03755Z" fill="#5E5E5E"></path>
  </symbol>

  <symbol fill="none" xmlns="http://www.w3.org/2000/svg" viewBox="0 0 24 24" id="icon-more">
    <path fill-rule="evenodd" clip-rule="evenodd" d="M3 12C3 10.8954 3.89543 10 5 10C6.10457 10 7 10.8954 7 12C7 13.1046 6.10457 14 5 14C3.89543 14 3 13.1046 3 12ZM10 12C10 10.8954 10.8954 10 12 10C13.1046 10 14 10.8954 14 12C14 13.1046 13.1046 14 12 14C10.8954 14 10 13.1046 10 12ZM17 12C17 10.8954 17.8954 10 19 10C20.1046 10 21 10.8954 21 12C21 13.1046 20.1046 14 19 14C17.8954 14 17 13.1046 17 12Z" fill="black"></path>
  </symbol>

  <symbol fill="none" xmlns="http://www.w3.org/2000/svg" viewBox="0 0 24 24" id="icon-report">
    <path d="M12 8V12M12 16H12.01M22 12C22 17.5228 17.5228 22 12 22C6.47715 22 2 17.5228 2 12C2 6.47715 6.47715 2 12 2C17.5228 2 22 6.47715 22 12Z" stroke="black" stroke-width="2" stroke-linecap="round" stroke-linejoin="round"></path>
  </symbol>

  <symbol xmlns="http://www.w3.org/2000/svg" viewBox="0 0 24 24" id="icon-send">
    <path fill-rule="evenodd" clip-rule="evenodd" d="M19.334 6.07975L11.668 13.7457L14.0011 19.7451L19.334 6.07975ZM10.2538 12.3315L17.9198 4.66554L4.25438 9.99837L10.2538 12.3315ZM20.6472 1.47411C20.8303 1.4209 21.1988 1.32529 21.5946 1.4575C22.0417 1.60688 22.3926 1.95779 22.542 2.40493C22.6742 2.8007 22.5786 3.16916 22.5254 3.35235C22.4674 3.55198 22.3745 3.7899 22.2813 4.0286L15.6639 20.9857C15.5598 21.2526 15.459 21.511 15.3604 21.7105C15.2751 21.8828 15.0855 22.2492 14.6919 22.4536C14.2578 22.6791 13.741 22.6788 13.3072 22.4528C12.9139 22.2479 12.7246 21.8813 12.6396 21.7089C12.5412 21.5093 12.4407 21.2507 12.3369 20.9838L9.72699 14.2725L3.05101 11.6763C3.03924 11.6717 3.02748 11.6672 3.01574 11.6626C2.74878 11.5588 2.49024 11.4583 2.29065 11.3599C2.11819 11.2749 1.75163 11.0856 1.54668 10.6923C1.32067 10.2585 1.32036 9.74172 1.54586 9.30766C1.75035 8.91405 2.11669 8.72436 2.28905 8.63914C2.48853 8.5405 2.74695 8.43969 3.01379 8.3356C3.02552 8.33103 3.03727 8.32644 3.04904 8.32185L19.9709 1.7182C20.2096 1.625 20.4475 1.5321 20.6472 1.47411Z"></path>
  </symbol>

  <symbol fill="none" xmlns="http://www.w3.org/2000/svg" viewBox="0 0 24 24" id="icon-x-close">
    <path d="M18 6L6 18M6 6L18 18"  stroke-width="2" stroke-linecap="round" stroke-linejoin="round"></path>
  </symbol>

  <symbol fill="none" xmlns="http://www.w3.org/2000/svg" viewBox="0 0 24 24" id="icon-about">
    <path fill-rule="evenodd" clip-rule="evenodd" d="M12 3C7.02944 3 3 7.02944 3 12C3 16.9706 7.02944 21 12 21C16.9706 21 21 16.9706 21 12C21 7.02944 16.9706 3 12 3ZM1 12C1 5.92487 5.92487 1 12 1C18.0751 1 23 5.92487 23 12C23 18.0751 18.0751 23 12 23C5.92487 23 1 18.0751 1 12ZM11 8C11 7.44772 11.4477 7 12 7H12.01C12.5623 7 13.01 7.44772 13.01 8C13.01 8.55228 12.5623 9 12.01 9H12C11.4477 9 11 8.55228 11 8ZM12 11C12.5523 11 13 11.4477 13 12V16C13 16.5523 12.5523 17 12 17C11.4477 17 11 16.5523 11 16V12C11 11.4477 11.4477 11 12 11Z" fill="#5E5E5E"></path>
  </symbol>

  <symbol fill="none" xmlns="http://www.w3.org/2000/svg" viewBox="0 0 24 24" id="icon-arrow-left">
    <path fill-rule="evenodd" clip-rule="evenodd" d="M15.7071 5.29289C16.0976 5.68342 16.0976 6.31658 15.7071 6.70711L10.4142 12L15.7071 17.2929C16.0976 17.6834 16.0976 18.3166 15.7071 18.7071C15.3166 19.0976 14.6834 19.0976 14.2929 18.7071L8.29289 12.7071C7.90237 12.3166 7.90237 11.6834 8.29289 11.2929L14.2929 5.29289C14.6834 4.90237 15.3166 4.90237 15.7071 5.29289Z" fill="#5E5E5E"></path>
  </symbol>

</svg>
