<svg width="58" height="56" viewBox="0 0 58 56" fill="none" xmlns="http://www.w3.org/2000/svg">
<path fill-rule="evenodd" clip-rule="evenodd" d="M28.981 0.532928C29.7422 0.532928 30.4375 0.96513 30.7744 1.64781L38.5382 17.3792L55.8971 19.8949C56.6509 20.0042 57.2772 20.5321 57.5125 21.2565C57.7478 21.981 57.5511 22.7761 57.0053 23.3074L44.4261 35.552L47.3922 52.8428C47.5209 53.5935 47.2122 54.3521 46.5958 54.7995C45.9794 55.2469 45.1624 55.3054 44.4886 54.9503L28.9986 46.7877L13.4717 54.9512C12.7978 55.3055 11.9813 55.2464 11.3654 54.799C10.7495 54.3515 10.441 53.5931 10.5697 52.8428L13.5358 35.552L0.956597 23.3074C0.410804 22.7761 0.214156 21.981 0.449408 21.2565C0.684659 20.5321 1.31097 20.0042 2.06476 19.8949L19.4237 17.3792L27.1875 1.64781C27.5244 0.96513 28.2197 0.532928 28.981 0.532928ZM28.981 7.05208L22.5451 20.0927C22.2537 20.6832 21.6902 21.0925 21.0385 21.1869L6.65444 23.2716L17.08 33.4198C17.552 33.8793 17.7675 34.5418 17.6562 35.1911L15.1974 49.5247L28.0689 42.7574C28.6522 42.4507 29.349 42.451 29.932 42.7582L42.7637 49.52L40.3057 35.1911C40.1944 34.5418 40.4099 33.8793 40.8819 33.4198L51.3075 23.2716L36.9234 21.1869C36.2717 21.0925 35.7083 20.6832 35.4168 20.0927L28.981 7.05208Z" fill="#E9F0FB"/>
</svg>
